# xmcd CD database file generated by OrangeCD 6.4
#
# Track frame offsets:
#	150
#	28408
#	52921
#	65937
#	81536
#	112392
#	128919
#	149545
#	164360
#	190021
#	200512
#	217731
#	248480
#	262430
#	289680
#	313139
#	328152
#
# Disc length: 4723 seconds
#
# Revision: 2
# Processed by: cddbd v1.5.2PL0 Copyright (c) Steve Scherf et al.
# Submitted via: OrangeCD 6.4
#
DISCID=1a127111
DTITLE=Various Artist - Antologia polskiego bluesa cz.2 
DYEAR=2009
DGENRE=Blues
TTITLE0=Les Chalimon and Friends - Cold, Cold Feeling
TTITLE1=Schau Pau Acoustic Blues - Too Much Trouble, Everyday Blues
TTITLE2=Nocna Zmiana Bluesa - Lato 1993
TTITLE3=Street Blues - You Have No Mercy
TTITLE4=Mike Russell and Levandek All Stars Blues Band - How I've Got Over
TTITLE5=Mark Olbrich - War Of Sexes
TTITLE6=Wanda Johnson and The Shrimp City Slim Band - Finally Home
TTITLE7=S³awek Wierzcholski - Co ma byæ
TTITLE8=Greg Zlap - The Right Spot
TTITLE9=G2 - Six Years Old
TTITLE10=Louisiana Red i Nocna Zmiana Bluesa - My Baby Went To N.Y.
TTITLE11=Phil Guy and His Blues Band - Oh, Darling
TTITLE12=QuBee - Slight Raise
TTITLE13=Johnny Rawls and Polish Boogie Boys Band - Can't Nobody
TTITLE14=Chris Farlowe and Free Blues Band - I Don't Care Baby
TTITLE15=Family Style - Jack Daniel
TTITLE16=John "Brodway" Tucker and Leszek Cichoñski feat. Wojciech Karolak - Mess
TTITLE16=in' With A Kid
EXTD=
EXTT0=
EXTT1=
EXTT2=
EXTT3=
EXTT4=
EXTT5=
EXTT6=
EXTT7=
EXTT8=
EXTT9=
EXTT10=
EXTT11=
EXTT12=
EXTT13=
EXTT14=
EXTT15=
EXTT16=
PLAYORDER=
